<?xml version="1.0" encoding="utf-8"?>
<!-- Generator: Adobe Illustrator 24.0.0, SVG Export Plug-In . SVG Version: 6.00 Build 0)  -->
<svg version="1.1" id="Camada_1" xmlns="http://www.w3.org/2000/svg" xmlns:xlink="http://www.w3.org/1999/xlink" x="0px" y="0px"
	 viewBox="0 0 14 14" style="enable-background:new 0 0 14 14;" xml:space="preserve">
<style type="text/css">
	.st0{fill:#FFB351;}
</style>
<path class="st0" d="M7,9.3l-4.2,4.2c-0.6,0.6-1.7,0.7-2.3,0s-0.6-1.7,0-2.3L4.7,7L0.5,2.8c-0.6-0.6-0.7-1.7,0-2.3s1.7-0.6,2.3,0
	L7,4.7l4.2-4.2c0.6-0.6,1.7-0.7,2.3,0s0.6,1.7,0,2.3L9.3,7l4.2,4.2c0.6,0.6,0.7,1.7,0,2.3s-1.7,0.6-2.3,0L7,9.3z"/>
</svg>
