<?xml version="1.0" encoding="utf-8"?>
<!-- Generator: Adobe Illustrator 24.0.0, SVG Export Plug-In . SVG Version: 6.00 Build 0)  -->
<svg version="1.1" id="Camada_1" xmlns="http://www.w3.org/2000/svg" xmlns:xlink="http://www.w3.org/1999/xlink" x="0px" y="0px"
	 viewBox="0 0 14 9" style="enable-background:new 0 0 14 9;" xml:space="preserve">
<style type="text/css">
	.st0{fill:#FFB351;}
</style>
<g id="Page-1">
	<g id="Home" transform="translate(-1517.000000, -4879.000000)">
		<g id="Recent-Articles" transform="translate(0.000000, 4765.000000)">
			<g id="Button" transform="translate(1405.000000, 114.000000)">
				<g id="Group-8">
					<g id="Group-7-Copy" transform="translate(112.000000, 0.000000)">
						<path id="Combined-Shape" class="st0" d="M10.6,5.5H1.5c-0.6,0-1-0.4-1-1s0.4-1,1-1h9.1L8.8,1.7c-0.4-0.4-0.4-1,0-1.4
							c0.4-0.4,1-0.4,1.4,0l3.5,3.5c0.4,0.4,0.4,1,0,1.4l-3.5,3.5c-0.4,0.4-1,0.4-1.4,0c-0.4-0.4-0.4-1,0-1.4L10.6,5.5z"/>
					</g>
				</g>
			</g>
		</g>
	</g>
</g>
</svg>
